<svg id="SvgjsSvg1001" width="288" height="288" xmlns="http://www.w3.org/2000/svg" version="1.1" xmlns:xlink="http://www.w3.org/1999/xlink" xmlns:svgjs="http://svgjs.com/svgjs"><defs id="SvgjsDefs1002"></defs><g id="SvgjsG1008"><svg xmlns="http://www.w3.org/2000/svg" viewBox="0 0 24 24" width="288" height="288"><path d="M22,14s-3-3-5,0c0,0-1.565-3.116-4-1.078V19a1,1,0,0,0,2,0V18a1,1,0,0,1,2,0v1a3,3,0,0,1-6,0V12.922C8.565,10.884,7,14,7,14c-2-3-5,0-5,0a10,10,0,0,1,9-9.95V3a1,1,0,0,1,2,0V4.05A10,10,0,0,1,22,14Z" fill="#ffffff" class="svgShape color000000-0 selectable"></path></svg></g></svg>