<svg id="SvgjsSvg1001" width="288" height="288" xmlns="http://www.w3.org/2000/svg" version="1.1" xmlns:xlink="http://www.w3.org/1999/xlink" xmlns:svgjs="http://svgjs.com/svgjs"><defs id="SvgjsDefs1002"></defs><g id="SvgjsG1008"><svg xmlns="http://www.w3.org/2000/svg" viewBox="0 0 24 24" width="288" height="288"><path d="M9,18.2c0-2.8,3-5.2,3-5.2s3,2.4,3,5.2c0,2-1.125,2.8-3,2.8S9,20.2,9,18.2ZM6,3S3,5.4,3,8.2c0,2,1.125,2.8,3,2.8s3-.8,3-2.8C9,5.4,6,3,6,3ZM18,3s-3,2.4-3,5.2c0,2,1.125,2.8,3,2.8s3-.8,3-2.8C21,5.4,18,3,18,3Z" fill="#ffffff" class="svgShape color000000-0 selectable"></path></svg></g></svg>